<svg xmlns="http://www.w3.org/2000/svg" viewBox="0 0 640 512"><!--! Font Awesome Pro 6.1.1 by @fontawesome - https://fontawesome.com License - https://fontawesome.com/license (Commercial License) Copyright 2022 Fonticons, Inc. --><path d="M160 64c0-35.3 28.7-64 64-64H576c35.3 0 64 28.7 64 64V352c0 35.3-28.7 64-64 64H336.8c-11.8-25.5-29.9-47.5-52.4-64H384V320c0-17.7 14.3-32 32-32h64c17.7 0 32 14.3 32 32v32h64V64L160 64zM504 312c-13.3 0-24-10.7-24-24s10.7-24 24-24s24 10.7 24 24s-10.7 24-24 24zM48 224H64V416H48c-26.5 0-48-21.5-48-48V272c0-26.5 21.5-48 48-48zm544 0c26.5 0 48 21.5 48 48v96c0 26.5-21.5 48-48 48H576V224h16zM0 128c0-26.5 21.5-48 48-48H96v64H48c-26.5 0-48-21.5-48-48zM95.2 256H144V448c0 35.3 28.7 64 64 64H384c35.3 0 64-28.7 64-64V416c0-8.8-7.2-16-16-16s-16 7.2-16 16v32c0 17.7-14.3 32-32 32H208c-17.7 0-32-14.3-32-32V256h14.8c22.8 0 43.8 12.1 55.3 31.7l11.1 18.9c6.8 11.7 21.6 15.7 33.4 8.9s15.7-21.6 8.9-33.4L288.4 263.2C270.1 230.6 234.9 208 197.2 208H95.2c-13.6 0-24.6 11-24.6 24.6C70.6 245 82.6 256 95.2 256z"/></svg>