<svg xmlns="http://www.w3.org/2000/svg" viewBox="0 0 640 512"><!--! Font Awesome Pro 6.1.1 by @fontawesome - https://fontawesome.com License - https://fontawesome.com/license (Commercial License) Copyright 2022 Fonticons, Inc. --><path d="M320 32c-8.1 0-16.1 1.4-23.7 4.1L15.8 114.2c-29.9 10.6-29.9 55.6 0 66.2L81.9 204.2c6.3 2.2 12.3 5.2 17.2 9.1L128 256l192 64c10.6 3.5 21.3 3.5 31.9 0L544 256c8.4-2.8 16.4-6.8 23.7-11.4l65.1-23c29.9-10.6 29.9-55.6 0-66.2L351.7 36.1C344.1 33.4 336.1 32 320 32zM128 288V464c0 26.5 21.5 48 48 48H464c26.5 0 48-21.5 48-48V288L320 352 128 288z"/></svg>