<svg width="28" height="28" viewBox="0 0 28 28" xmlns="http://www.w3.org/2000/svg">
<path d="M18 0.999V8.999C18 9.546 17.547 9.999 17 9.999C16.734 9.999 16.484 9.89 16.297 9.702L13.547 6.952L3.36 17.139C3.266 17.233 3.126 17.295 3.001 17.295C2.876 17.295 2.735 17.232 2.642 17.139L0.861002 15.358C0.767002 15.264 0.705002 15.124 0.705002 14.999C0.705002 14.874 0.768002 14.733 0.861002 14.64L11.048 4.453L8.298 1.703C8.111 1.516 8.001 1.265 8.001 1C8.001 0.453 8.454 0 9.001 0H17.001C17.548 0 18.001 0.453 18.001 1L18 0.999Z"/>
</svg>
