<svg xmlns="http://www.w3.org/2000/svg" viewBox="0 0 512 512"><!--! Font Awesome Pro 6.1.1 by @fontawesome - https://fontawesome.com License - https://fontawesome.com/license (Commercial License) Copyright 2022 Fonticons, Inc. --><path d="M4.1 38.2C1.4 34.2 0 29.4 0 24.6C0 11 11 0 24.6 0h79.8c8.7 0 16.7 4.5 21.2 11.9l57.9 95-75.4 75.4L4.1 38.2zM128 176l48-48 48 48-48 48-48-48zm95.8-46.7L299.3 7.5C304.6 2.9 311.4 0 318.4 0h91.8c8.8 0 16-7.2 16-16s-7.2-16-16-16H318.4c-13.9 0-27.4 5.8-37.2 16.1L202.7 62.7 223.8 129.3zM256 128c-53 0-96 43-96 96s43 96 96 96 96-43 96-96-43-96-96-96z"/></svg>