<svg xmlns="http://www.w3.org/2000/svg" viewBox="0 0 512 512"><!--! Font Awesome Pro 6.1.1 by @fontawesome - https://fontawesome.com License - https://fontawesome.com/license (Commercial License) Copyright 2022 Fonticons, Inc. --><path d="M160 32c0-17.7 14.3-32 32-32h32c17.7 0 32 14.3 32 32c0 17.7-14.3 32-32 32V96h8c13.3 0 24 10.7 24 24v16c0 13.3-10.7 24-24 24H160c-13.3 0-24-10.7-24-24V120c0-13.3 10.7-24 24-24h8V64c-17.7 0-32-14.3-32-32zM32 192c-17.7 0-32-14.3-32-32s14.3-32 32-32H480c17.7 0 32 14.3 32 32s-14.3 32-32 32v64c0 53-43 96-96 96H320v32h80c8.8 0 16 7.2 16 16s-7.2 16-16 16H32c-8.8 0-16-7.2-16-16s7.2-16 16-16h80V352c0-53 43-96 96-96V192H32z"/></svg>