<svg xmlns="http://www.w3.org/2000/svg" viewBox="0 0 512 512"><!--! Font Awesome Pro 6.1.1 by @fontawesome - https://fontawesome.com License - https://fontawesome.com/license (Commercial License) Copyright 2022 Fonticons, Inc. --><path d="M156.6 384.9L125.7 354c-8.5-8.5-11.5-20.8-7.7-32.2c3-8.9 7-20.5 11.8-33.8L24 288c-8.6 0-16.6-4.6-20.9-12.1s-4.2-16.7 .2-24.1l52.5-87.5c27.3-45.6 69.5-80.9 119.8-100.4L232 60.1c3.3-1.7 7.1-2.1 10.7-1.1L352 92.7c8.4 2.1 15.4 7.7 19.3 15.3s5.2 16.4 2.1 24.6L332.3 238c-.7 5.6-2.6 10.9-5.6 15.4L272.9 342.5c-6.5 9.7-20 12.6-30.4 6.5l-29.4-17.2c-14.2-8.3-26.5-19.4-36.3-32.5L156.6 384.9zM384 168a40 40 0 1 0 0-80 40 40 0 1 0 0 80zM244.8 216a32 32 0 1 0 -64 0 32 32 0 1 0 64 0zM180.9 295.9c-8.1-1.6-15.9 3.8-17.5 12l-5.2 26.3c-1.1 5.7-2.8 11.2-5.1 16.4L139.7 379c-5.6 12.4 1.1 27 14.5 31.8l49.3 17.7c14.1 5.1 29.4 2.5 40.9-6.9l38.9-31.8c10.1-8.3 15.9-20.5 15.9-33.5c0-14.9-7.4-28.8-19.8-37.2L244.3 297c-6.1-4.1-13.4-5.4-20.3-3.8l-37.1 7.4c-2.7 .5-5.4-.5-7.1-2.7z"/></svg>